<svg width="96" height="96" viewBox="0 0 96 96" fill="none" xmlns="http://www.w3.org/2000/svg">
  <rect width="96" height="96" rx="24" fill="#0B0805"/>
  <path d="M48 15C65.95 15 80.5 29.55 80.5 47.5C80.5 65.45 65.95 80 48 80C30.05 80 15.5 65.45 15.5 47.5C15.5 29.55 30.05 15 48 15Z" stroke="url(#loop)" stroke-width="9" stroke-linecap="round" stroke-dasharray="138 28"/>
  <path d="M59.5 23.5C66.2 27.4 70.7 34.7 70.7 43C70.7 55.5 60.5 65.7 48 65.7C35.5 65.7 25.3 55.5 25.3 43C25.3 34.6 29.9 27.3 36.7 23.4" stroke="#F6E8D3" stroke-opacity=".2" stroke-width="2.5" stroke-linecap="round"/>
  <circle cx="48" cy="48" r="17" fill="#F6E8D3"/>
  <circle cx="48" cy="48" r="10.5" fill="#C8773E"/>
  <path d="M38 35.5C41.1 33.2 44.8 32 48.8 32C58.4 32 66.2 39.8 66.2 49.4" stroke="#97BE73" stroke-width="4" stroke-linecap="round"/>
  <path d="M52.6 39.4L59.7 32.3" stroke="#F6E8D3" stroke-width="3.2" stroke-linecap="round"/>
  <path d="M58.8 38.5L52.6 32.3" stroke="#F6E8D3" stroke-width="3.2" stroke-linecap="round"/>
  <circle cx="72.5" cy="25.5" r="6.5" fill="#E9A35E"/>
  <circle cx="72.5" cy="25.5" r="2.5" fill="#0B0805"/>
  <defs>
    <linearGradient id="loop" x1="18" y1="74" x2="76" y2="20" gradientUnits="userSpaceOnUse">
      <stop stop-color="#97BE73"/>
      <stop offset=".52" stop-color="#C8773E"/>
      <stop offset="1" stop-color="#F0B469"/>
    </linearGradient>
  </defs>
</svg>
